<svg width="15" height="18" viewBox="0 0 15 18" fill="none" xmlns="http://www.w3.org/2000/svg">
<path d="M1.5 15V7.5H10.5V8.25C11.025 8.25 11.5275 8.325 12 8.4675V7.5C12 6.675 11.325 6 10.5 6H9.75V4.5C9.75 2.43 8.07 0.75 6 0.75C3.93 0.75 2.25 2.43 2.25 4.5V6H1.5C0.675 6 0 6.675 0 7.5V15C0 15.825 0.675 16.5 1.5 16.5H6.195C5.88 16.05 5.6325 15.54 5.4675 15H1.5ZM3.75 4.5C3.75 3.255 4.755 2.25 6 2.25C7.245 2.25 8.25 3.255 8.25 4.5V6H3.75V4.5Z" fill="#808080"/>
<path d="M10.5 9.75C8.43 9.75 6.75 11.43 6.75 13.5C6.75 15.57 8.43 17.25 10.5 17.25C12.57 17.25 14.25 15.57 14.25 13.5C14.25 11.43 12.57 9.75 10.5 9.75ZM11.7375 15.2625L10.125 13.65V11.25H10.875V13.3425L12.2625 14.73L11.7375 15.2625Z" fill="#808080"/>
</svg>
